<mxfile host="app.diagrams.net" modified="2022-07-05T22:53:30.667Z" agent="5.0 (Macintosh; Intel Mac OS X 10_15_7) AppleWebKit/537.36 (KHTML, like Gecko) Chrome/103.0.0.0 Safari/537.36" etag="FoqQfgTaclNAFXO4BVu2" version="20.0.4" type="github">
  <diagram id="J3DCZBRzC3aoTUAwQ61n" name="Page-1">
    <mxGraphModel dx="2113" dy="1696" grid="1" gridSize="10" guides="1" tooltips="1" connect="1" arrows="1" fold="1" page="1" pageScale="1" pageWidth="850" pageHeight="1100" math="0" shadow="0">
      <root>
        <mxCell id="0" />
        <mxCell id="1" parent="0" />
        <mxCell id="DPSiODVmER1UZPMJQLEv-4" value="s3://us-east-1-prod-delphi-to-ml-platform-dropzone-s3/user_understanding_embedding_adhoc/WORKFLOW_TARGET" style="shape=cylinder3;whiteSpace=wrap;html=1;boundedLbl=1;backgroundOutline=1;size=15;labelPosition=center;verticalLabelPosition=top;align=center;verticalAlign=bottom;" parent="1" vertex="1">
          <mxGeometry x="410" y="-30" width="60" height="60" as="geometry" />
        </mxCell>
        <mxCell id="DPSiODVmER1UZPMJQLEv-35" value="Source data copied from Delphi for eventstream and transunion, along with target data&amp;nbsp;" style="text;html=1;strokeColor=none;fillColor=none;align=center;verticalAlign=middle;rounded=0;labelBackgroundColor=none;fontColor=#990000;" parent="1" vertex="1">
          <mxGeometry x="-40" y="140" width="60" height="30" as="geometry" />
        </mxCell>
        <mxCell id="DPSiODVmER1UZPMJQLEv-47" style="edgeStyle=orthogonalEdgeStyle;rounded=0;orthogonalLoop=1;jettySize=auto;html=1;exitX=0;exitY=0;exitDx=63.75;exitDy=80;exitPerimeter=0;fontColor=#000000;entryX=0.703;entryY=0.986;entryDx=0;entryDy=0;entryPerimeter=0;" parent="1" source="DPSiODVmER1UZPMJQLEv-42" edge="1">
          <mxGeometry relative="1" as="geometry">
            <mxPoint x="809.5100000000002" y="519.02" as="targetPoint" />
          </mxGeometry>
        </mxCell>
        <mxCell id="DPSiODVmER1UZPMJQLEv-51" value="&lt;font style=&quot;font-size: 14px;&quot;&gt;MLplatform DAGs - &lt;a href=&quot;https://github.com/NerdWallet/delphi/tree/master/src/dags&quot;&gt;https://github.com/NerdWallet/nwdags-ml-platform/tree/master/&lt;/a&gt;&lt;/font&gt;" style="text;html=1;align=center;verticalAlign=middle;resizable=0;points=[];autosize=1;strokeColor=none;fillColor=none;fontColor=#000000;" parent="1" vertex="1">
          <mxGeometry x="-40" y="250" width="540" height="30" as="geometry" />
        </mxCell>
        <mxCell id="DPSiODVmER1UZPMJQLEv-52" value="DE DAGs -&amp;nbsp;&lt;a style=&quot;box-sizing: inherit; text-decoration-line: none; font-family: Slack-Lato, Slack-Fractions, appleLogo, sans-serif; font-size: 15px; font-variant-ligatures: common-ligatures; text-align: left;&quot; data-remove-tab-index=&quot;true&quot; tabindex=&quot;-1&quot; rel=&quot;noopener noreferrer&quot; href=&quot;https://github.com/NerdWallet/delphi/tree/master/src/dags&quot; data-sk=&quot;tooltip_parent&quot; data-stringify-link=&quot;https://github.com/NerdWallet/delphi/tree/master/src/dags&quot; class=&quot;c-link&quot; target=&quot;_blank&quot;&gt;https://github.com/NerdWallet/delphi/tree/master/src/dags&lt;/a&gt;" style="text;html=1;align=center;verticalAlign=middle;resizable=0;points=[];autosize=1;strokeColor=none;fillColor=none;fontColor=#000000;" parent="1" vertex="1">
          <mxGeometry x="-20" y="-330" width="470" height="30" as="geometry" />
        </mxCell>
        <mxCell id="9Zdf6GrbdQyKHOPBXZbT-1" value="&lt;font color=&quot;#990000&quot; style=&quot;font-size: 25px;&quot;&gt;DE DAGs&lt;/font&gt;" style="text;html=1;align=center;verticalAlign=middle;resizable=0;points=[];autosize=1;strokeColor=none;fillColor=none;" vertex="1" parent="1">
          <mxGeometry x="170" y="-370" width="130" height="40" as="geometry" />
        </mxCell>
        <mxCell id="9Zdf6GrbdQyKHOPBXZbT-2" value="&lt;font color=&quot;#000066&quot;&gt;ML DAGs&lt;/font&gt;" style="text;html=1;align=center;verticalAlign=middle;resizable=0;points=[];autosize=1;strokeColor=none;fillColor=none;fontSize=25;" vertex="1" parent="1">
          <mxGeometry x="165" y="210" width="130" height="40" as="geometry" />
        </mxCell>
        <mxCell id="9Zdf6GrbdQyKHOPBXZbT-4" value="&lt;span style=&quot;caret-color: rgb(165, 214, 255); font-family: ui-monospace, SFMono-Regular, &amp;quot;SF Mono&amp;quot;, Menlo, Consolas, &amp;quot;Liberation Mono&amp;quot;, monospace; font-size: 12px; text-size-adjust: auto;&quot;&gt;&lt;font color=&quot;#330000&quot;&gt;&lt;span style=&quot;white-space: pre;&quot;&gt;	&lt;/span&gt;Name of dag: nwpy_ml_embedding_dag&lt;br&gt;&lt;span style=&quot;box-sizing: border-box; caret-color: rgb(201, 209, 217); text-size-adjust: auto;&quot; class=&quot;pl-s1&quot;&gt;&lt;span style=&quot;box-sizing: border-box;&quot; data-hydro-click-hmac=&quot;99df0de95a7838768272debd3a4633718ef6220060d011ebce648fd38299e85e&quot; data-hydro-click=&quot;{&amp;quot;event_type&amp;quot;:&amp;quot;code_navigation.click_on_symbol&amp;quot;,&amp;quot;payload&amp;quot;:{&amp;quot;action&amp;quot;:&amp;quot;click_on_symbol&amp;quot;,&amp;quot;repository_id&amp;quot;:171959319,&amp;quot;ref&amp;quot;:&amp;quot;master&amp;quot;,&amp;quot;language&amp;quot;:&amp;quot;Python&amp;quot;,&amp;quot;backend&amp;quot;:&amp;quot;ALEPH_PRECISE&amp;quot;,&amp;quot;code_nav_context&amp;quot;:&amp;quot;BLOB_VIEW&amp;quot;,&amp;quot;retry_backend&amp;quot;:&amp;quot;&amp;quot;,&amp;quot;originating_url&amp;quot;:&amp;quot;https://github.com/NerdWallet/nwdags-ml-platform/find-definition?q=code_artifact&amp;amp;blob_path=src%2Fdags%2Fnwpy_ml_embedding_eventstream_dag.py&amp;amp;ref=master&amp;amp;language=Python&amp;amp;row=12&amp;amp;col=0&amp;amp;code_nav_context=BLOB_VIEW&amp;quot;,&amp;quot;user_id&amp;quot;:102988599}}&quot; class=&quot;pl-token&quot;&gt;&lt;span style=&quot;white-space: pre;&quot;&gt;	&lt;/span&gt;code_artifact:&lt;/span&gt;&lt;/span&gt;&lt;span style=&quot;caret-color: rgb(201, 209, 217); text-size-adjust: auto;&quot;&gt;&amp;nbsp;&lt;/span&gt;&lt;span style=&quot;box-sizing: border-box; text-size-adjust: auto;&quot; class=&quot;pl-s&quot;&gt;&quot;nwpy-ml-embedding:latest&quot;&lt;br&gt;&lt;span style=&quot;text-size-adjust: auto;&quot;&gt;&lt;span style=&quot;white-space: pre;&quot;&gt;	&lt;/span&gt;data_files: s3://us-east-1-prod-delphi-to-ml-platform-dropzone-s3/user_understanding_embedding/transunion/:latest&lt;br&gt;&lt;/span&gt;&lt;/span&gt;&lt;span style=&quot;white-space: pre;&quot;&gt;	&lt;/span&gt;batch predict after train: True&amp;nbsp;&lt;br&gt;&lt;/font&gt;&lt;span style=&quot;caret-color: rgb(139, 148, 158); text-size-adjust: auto;&quot;&gt;&lt;font color=&quot;#330000&quot;&gt;&lt;span style=&quot;white-space: pre;&quot;&gt;	&lt;/span&gt;Scheduled:At 06:00 on day-of-month 28&lt;/font&gt;&lt;/span&gt;&lt;br&gt;&lt;/span&gt;" style="rounded=1;whiteSpace=wrap;html=1;fontSize=25;fontColor=#000066;align=left;" vertex="1" parent="1">
          <mxGeometry x="-220" y="370" width="910" height="160" as="geometry" />
        </mxCell>
        <mxCell id="9Zdf6GrbdQyKHOPBXZbT-5" value="&lt;font style=&quot;font-size: 12px;&quot;&gt;https://github.com/NerdWallet/nwdags-ml-platform/blob/master/src/dags/nwpy_ml_embedding_transunion_dag.py&lt;/font&gt;" style="text;html=1;align=center;verticalAlign=middle;resizable=0;points=[];autosize=1;strokeColor=none;fillColor=none;fontSize=25;fontColor=#000066;" vertex="1" parent="1">
          <mxGeometry x="-180" y="310" width="630" height="40" as="geometry" />
        </mxCell>
        <mxCell id="9Zdf6GrbdQyKHOPBXZbT-6" value="https://github.com/NerdWallet/nwdags-ml-platform/blob/master/src/dags/nwpy_ml_embedding_eventstream_dag.py" style="text;html=1;align=center;verticalAlign=middle;resizable=0;points=[];autosize=1;strokeColor=none;fillColor=none;fontSize=12;fontColor=#000066;" vertex="1" parent="1">
          <mxGeometry x="-190" y="570" width="640" height="30" as="geometry" />
        </mxCell>
        <mxCell id="9Zdf6GrbdQyKHOPBXZbT-8" value="&lt;span style=&quot;caret-color: rgb(165, 214, 255); font-family: ui-monospace, SFMono-Regular, &amp;quot;SF Mono&amp;quot;, Menlo, Consolas, &amp;quot;Liberation Mono&amp;quot;, monospace; font-size: 12px; text-size-adjust: auto;&quot;&gt;&lt;font color=&quot;#330000&quot;&gt;&lt;span style=&quot;white-space: pre;&quot;&gt;	&lt;/span&gt;Name of dag: nwpy_ml_embedding_dag&lt;br&gt;&lt;span style=&quot;box-sizing: border-box; caret-color: rgb(201, 209, 217); text-size-adjust: auto;&quot; class=&quot;pl-s1&quot;&gt;&lt;span style=&quot;box-sizing: border-box;&quot; data-hydro-click-hmac=&quot;99df0de95a7838768272debd3a4633718ef6220060d011ebce648fd38299e85e&quot; data-hydro-click=&quot;{&amp;quot;event_type&amp;quot;:&amp;quot;code_navigation.click_on_symbol&amp;quot;,&amp;quot;payload&amp;quot;:{&amp;quot;action&amp;quot;:&amp;quot;click_on_symbol&amp;quot;,&amp;quot;repository_id&amp;quot;:171959319,&amp;quot;ref&amp;quot;:&amp;quot;master&amp;quot;,&amp;quot;language&amp;quot;:&amp;quot;Python&amp;quot;,&amp;quot;backend&amp;quot;:&amp;quot;ALEPH_PRECISE&amp;quot;,&amp;quot;code_nav_context&amp;quot;:&amp;quot;BLOB_VIEW&amp;quot;,&amp;quot;retry_backend&amp;quot;:&amp;quot;&amp;quot;,&amp;quot;originating_url&amp;quot;:&amp;quot;https://github.com/NerdWallet/nwdags-ml-platform/find-definition?q=code_artifact&amp;amp;blob_path=src%2Fdags%2Fnwpy_ml_embedding_eventstream_dag.py&amp;amp;ref=master&amp;amp;language=Python&amp;amp;row=12&amp;amp;col=0&amp;amp;code_nav_context=BLOB_VIEW&amp;quot;,&amp;quot;user_id&amp;quot;:102988599}}&quot; class=&quot;pl-token&quot;&gt;&lt;span style=&quot;white-space: pre;&quot;&gt;	&lt;/span&gt;code_artifact:&lt;/span&gt;&lt;/span&gt;&lt;span style=&quot;caret-color: rgb(201, 209, 217); text-size-adjust: auto;&quot;&gt;&amp;nbsp;&lt;/span&gt;&lt;span style=&quot;box-sizing: border-box; text-size-adjust: auto;&quot; class=&quot;pl-s&quot;&gt;&quot;nwpy-ml-embedding:latest&quot;&lt;br&gt;&lt;span style=&quot;text-size-adjust: auto;&quot;&gt;&lt;span style=&quot;white-space: pre;&quot;&gt;	&lt;/span&gt;data_files: s3://us-east-1-prod-delphi-to-ml-platform-dropzone-s3/user_understanding_embedding/eventstream/:latest&lt;br&gt;&lt;/span&gt;&lt;/span&gt;&lt;span style=&quot;white-space: pre;&quot;&gt;	&lt;/span&gt;batch predict after train: True&amp;nbsp;&lt;br&gt;&lt;/font&gt;&lt;span style=&quot;caret-color: rgb(139, 148, 158); text-size-adjust: auto;&quot;&gt;&lt;font color=&quot;#330000&quot;&gt;&lt;span style=&quot;white-space: pre;&quot;&gt;	&lt;/span&gt;Scheduled:At 06:00 on day-of-month 28&lt;/font&gt;&lt;/span&gt;&lt;br&gt;&lt;/span&gt;" style="rounded=1;whiteSpace=wrap;html=1;fontSize=25;fontColor=#000066;align=left;" vertex="1" parent="1">
          <mxGeometry x="-225" y="620" width="910" height="160" as="geometry" />
        </mxCell>
        <mxCell id="9Zdf6GrbdQyKHOPBXZbT-9" value="This needs to be changed &lt;br&gt;to .../train/transunion/&lt;br&gt;and ../predict/transunion" style="text;html=1;align=center;verticalAlign=middle;resizable=0;points=[];autosize=1;strokeColor=none;fillColor=none;fontSize=12;fontColor=#330000;" vertex="1" parent="1">
          <mxGeometry x="690" y="420" width="160" height="60" as="geometry" />
        </mxCell>
        <mxCell id="9Zdf6GrbdQyKHOPBXZbT-11" value="This needs to be changed&lt;br&gt;to ../train/eventstream&lt;br&gt;and ../predict/eventstream/" style="text;html=1;align=center;verticalAlign=middle;resizable=0;points=[];autosize=1;strokeColor=none;fillColor=none;fontSize=12;fontColor=#330000;" vertex="1" parent="1">
          <mxGeometry x="680" y="610" width="170" height="60" as="geometry" />
        </mxCell>
      </root>
    </mxGraphModel>
  </diagram>
</mxfile>
